<?xml version="1.0" encoding="UTF-8"?>
<svg version="1.1" xmlns="http://www.w3.org/2000/svg" width="1080" height="1080">
<path d="M0 0 C356.4 0 712.8 0 1080 0 C1080 356.4 1080 712.8 1080 1080 C723.6 1080 367.2 1080 0 1080 C0 723.6 0 367.2 0 0 Z " fill="#202020" transform="translate(0,0)"/>
<path d="M0 0 C1.79099121 -0.01051392 1.79099121 -0.01051392 3.61816406 -0.02124023 C6.88478133 -0.03581159 10.15074848 -0.03242148 13.41735578 -0.01972389 C16.83879263 -0.00958048 20.26018677 -0.01899306 23.68162537 -0.02526855 C29.42568738 -0.03254012 35.16954348 -0.02296931 40.91357422 -0.00390625 C47.55241777 0.01787217 54.19077013 0.01080255 60.82960182 -0.01121187 C66.53337003 -0.0293677 72.23699043 -0.0319237 77.9407782 -0.0214572 C81.34581456 -0.01522449 84.75062006 -0.01438038 88.15564156 -0.02760315 C91.95045541 -0.03773759 95.74431957 -0.02230957 99.5390625 0 C100.66696701 -0.00809692 101.79487152 -0.01619385 102.95695496 -0.02453613 C103.99016876 -0.01325684 105.02338257 -0.00197754 106.08790588 0.00964355 C106.98476892 0.01115166 107.88163195 0.01265976 108.80567265 0.01421356 C112.03287361 0.69130792 113.22160826 1.92210443 115.20483398 4.51757812 C115.70540524 6.59931374 115.70540524 6.59931374 115.70603943 8.86367798 C115.71587357 9.72664993 115.7257077 10.58962189 115.73583984 11.47874451 C115.72617187 12.41791214 115.71650391 13.35707977 115.70654297 14.32470703 C115.71464745 15.81840065 115.71464745 15.81840065 115.72291565 17.3422699 C115.7354454 20.64319389 115.71886656 23.94325184 115.70092773 27.24414062 C115.70108279 29.54942877 115.70257293 31.85471717 115.70533752 34.16000366 C115.706724 39.00392112 115.694135 43.84754344 115.67138672 48.69140625 C115.64322418 54.85294584 115.64567533 61.01398675 115.65847683 67.1755619 C115.66549427 71.94589363 115.6575725 76.71611367 115.6452198 81.48643112 C115.6407481 83.75465845 115.64033041 86.02289797 115.6442852 88.29112625 C115.68051404 127.41022532 105.73497057 164.88078479 78.26733398 193.83007812 C56.97246502 214.08828004 26.48781423 226.97882279 -2.79516602 228.51757812 C-4.25696289 228.59685547 -4.25696289 228.59685547 -5.74829102 228.67773438 C-13.27941994 228.90445684 -13.27941994 228.90445684 -15.41664124 227.30125427 C-17.22016855 224.96766644 -17.18099931 223.58274152 -17.19921875 220.65063477 C-17.21190292 219.66273453 -17.2245871 218.67483429 -17.23765564 217.65699768 C-17.23472 216.59134079 -17.23178436 215.5256839 -17.22875977 214.42773438 C-17.23400162 213.33166367 -17.23924347 212.23559296 -17.24464417 211.10630798 C-17.25107083 208.78710782 -17.24971909 206.4678751 -17.24121094 204.14868164 C-17.23270708 200.59722895 -17.26144555 197.04738719 -17.29321289 193.49609375 C-17.29482508 191.24414111 -17.29424703 188.99218561 -17.29125977 186.74023438 C-17.30249374 185.67660172 -17.31372772 184.61296906 -17.32530212 183.5171051 C-17.2559709 176.19259433 -17.2559709 176.19259433 -14.99902344 172.88647461 C-11.76329112 170.87664287 -8.35713451 170.22744632 -4.67016602 169.51757812 C10.99205254 166.12238771 22.79065386 160.2171598 32.26733398 146.71289062 C39.35784692 135.01926243 41.32046638 121.84501593 43.20483398 108.51757812 C42.52689285 108.52868118 41.84895172 108.53978424 41.15046692 108.55122375 C34.09409765 108.661846 27.03797468 108.737258 19.98095703 108.79223633 C17.34739171 108.8173797 14.71389617 108.85149896 12.08056641 108.89477539 C8.2949909 108.95543023 4.51033801 108.98379083 0.72436523 109.00585938 C-1.04151192 109.04456902 -1.04151192 109.04456902 -2.84306335 109.08406067 C-3.94382706 109.08443832 -5.04459076 109.08481598 -6.17871094 109.08520508 C-7.14467697 109.09630814 -8.11064301 109.10741119 -9.10588074 109.11885071 C-13.07221456 108.23205458 -14.43945914 106.81433642 -16.79516602 103.51757812 C-17.51087932 100.31542498 -17.47886071 97.19626506 -17.44213867 93.92553711 C-17.45090027 92.96562866 -17.45966187 92.00572021 -17.46868896 91.01672363 C-17.49066878 87.84857791 -17.47613584 84.6818314 -17.45922852 81.51367188 C-17.46259676 79.31079338 -17.46744945 77.10791669 -17.47372437 74.90504456 C-17.48109357 70.29076423 -17.47038712 65.67696815 -17.44702148 61.06274414 C-17.41851751 55.14511602 -17.43494848 49.22862086 -17.4648838 43.3110342 C-17.48294086 38.76340681 -17.47720623 34.21604861 -17.46424484 29.66841316 C-17.46090732 27.48629688 -17.46501001 25.30415623 -17.47664261 23.12206841 C-17.48932649 20.0741272 -17.47000848 17.02802837 -17.44213867 13.98022461 C-17.45225983 13.07673782 -17.46238098 12.17325104 -17.47280884 11.24238586 C-17.40687987 7.35526108 -17.26508019 5.18445727 -14.9919281 1.95851135 C-10.05172196 -0.26827531 -5.35977887 -0.03854559 0 0 Z " fill="#FCE5CC" transform="translate(413.795166015625,425.482421875)"/>
<path d="M0 0 C1.16473343 -0.0071553 2.32946686 -0.01431061 3.52949524 -0.02168274 C7.37935608 -0.03859115 11.22805615 -0.01915377 15.07788086 0.00219727 C17.75159768 0.00136883 20.42527409 -0.00103408 23.09898376 -0.00511169 C28.7018674 -0.00962942 34.30441683 0.0062183 39.90722656 0.03417969 C46.38249414 0.06624622 52.85715958 0.06620905 59.33247 0.04896492 C65.56624586 0.03309645 71.7998012 0.03983428 78.03356743 0.05690193 C80.68457991 0.06209191 83.33560972 0.06159211 85.98661995 0.05535698 C89.68807665 0.04991904 93.38850423 0.07023607 97.08984375 0.09765625 C98.18969604 0.09113037 99.28954834 0.08460449 100.42272949 0.07788086 C101.43070084 0.09060532 102.43867218 0.10332977 103.47718811 0.11643982 C104.35192811 0.11924674 105.22666811 0.12205366 106.12791538 0.12494564 C109.31821889 0.81141884 110.51218744 2.06778305 112.48022461 4.63110352 C112.97800255 6.70280838 112.97800255 6.70280838 112.97470093 8.95269775 C112.9830899 9.81014587 112.99147888 10.66759399 113.00012207 11.55102539 C112.98888306 12.48398437 112.97764404 13.41694336 112.96606445 14.37817383 C112.96986115 15.36742859 112.97365784 16.35668335 112.97756958 17.37591553 C112.98499067 20.65400708 112.96355229 23.93121527 112.94116211 27.20922852 C112.93877624 29.49688615 112.93787266 31.78454577 112.93838501 34.07220459 C112.93525319 38.87744348 112.91867186 43.68238485 112.8918457 48.48754883 C112.85809565 54.60661583 112.85021063 60.72535235 112.85173607 66.8445015 C112.85118801 71.57699666 112.84014782 76.30942147 112.82573318 81.04189301 C112.81942274 83.29502582 112.81543997 85.54816652 112.81394577 87.80130768 C112.79026614 104.86640196 111.93159103 120.96038268 107.35522461 137.50610352 C107.04883057 138.61961182 106.74243652 139.73312012 106.42675781 140.88037109 C97.47336714 172.27493656 79.11100372 196.58882931 50.48022461 212.63110352 C32.02859253 222.38263645 12.03532745 228.07203126 -8.85961914 228.95141602 C-10.05445923 229.00579834 -10.05445923 229.00579834 -11.2734375 229.0612793 C-13.51977539 228.63110352 -13.51977539 228.63110352 -15.77783203 227.28076172 C-18.54804805 223.06700496 -18.09044787 218.85135104 -18.05102539 213.91625977 C-18.05485229 212.86836777 -18.0586792 211.82047577 -18.06262207 210.74082947 C-18.06534257 208.52594034 -18.05797181 206.31101916 -18.04125977 204.09619141 C-18.01987457 200.7093113 -18.0410468 197.32455776 -18.06665039 193.93774414 C-18.06400672 191.78474467 -18.05888093 189.63174653 -18.05102539 187.47875977 C-18.05912231 186.467173 -18.06721924 185.45558624 -18.07556152 184.41334534 C-18.01803099 180.08915818 -17.92801857 177.35419233 -15.77392578 173.53881836 C-13.37356293 171.50736214 -11.98576966 170.82355124 -8.92211914 170.26000977 C-8.04338135 170.08179688 -7.16464355 169.90358398 -6.25927734 169.7199707 C-4.87228638 169.45941895 -4.87228638 169.45941895 -3.45727539 169.19360352 C11.27369625 166.03114945 23.02153996 159.81707169 31.85522461 147.13110352 C38.11435355 136.88728968 41.58655062 125.98962999 41.51245117 113.89233398 C41.50547211 112.41263626 41.50547211 112.41263626 41.49835205 110.90304565 C41.49237 110.15330475 41.48638794 109.40356384 41.48022461 108.63110352 C40.45665108 108.62230415 40.45665108 108.62230415 39.41239929 108.61332703 C32.32348476 108.54949682 25.23502859 108.46510411 18.14648438 108.36865234 C15.49941035 108.33535479 12.8522645 108.3073381 10.20507812 108.28466797 C6.40455451 108.2512114 2.60469206 108.19889865 -1.19555664 108.14282227 C-2.38313065 108.13643234 -3.57070465 108.13004242 -4.79426575 108.12345886 C-5.89518051 108.1036647 -6.99609528 108.08387054 -8.13037109 108.06347656 C-9.10077835 108.0523735 -10.07118561 108.04127045 -11.07099915 108.02983093 C-13.99882529 107.55310115 -14.70359506 106.92241341 -16.51977539 104.63110352 C-16.90288544 102.7298069 -16.90288544 102.7298069 -16.91418457 100.54556274 C-16.92553436 99.7156633 -16.93688416 98.88576385 -16.94857788 98.03071594 C-16.94564728 97.12363388 -16.94271667 96.21655182 -16.93969727 95.28198242 C-16.94816681 94.32397232 -16.95663635 93.36596222 -16.96536255 92.37892151 C-16.98880362 89.20503543 -16.98975292 86.03163219 -16.98852539 82.85766602 C-16.99562325 80.6543254 -17.00332169 78.45098665 -17.01159668 76.24765015 C-17.02505827 71.62574122 -17.02660295 67.00400315 -17.02075195 62.38208008 C-17.01485789 56.45783226 -17.04542816 50.53440452 -17.08586884 44.61031532 C-17.11171512 40.0583962 -17.11462594 35.50667523 -17.11097717 30.95469284 C-17.11267165 28.7705924 -17.12234554 26.58648313 -17.14012146 24.40245438 C-17.16224721 21.34741591 -17.15264071 18.29404624 -17.13500977 15.23901367 C-17.14827301 14.33598007 -17.16153625 13.43294647 -17.17520142 12.50254822 C-17.12042521 8.41935829 -16.81909987 6.13496074 -14.7013092 2.5700531 C-9.89275766 -0.36046393 -5.53173163 -0.05891461 0 0 Z " fill="#FCE5CC" transform="translate(572.519775390625,425.368896484375)"/>
</svg>
